<?xml version="1.0" standalone="no"?>
<!DOCTYPE svg PUBLIC "-//W3C//DTD SVG 20010904//EN"
 "http://www.w3.org/TR/2001/REC-SVG-20010904/DTD/svg10.dtd">
<svg version="1.0" xmlns="http://www.w3.org/2000/svg"
 width="1406.000000pt" height="732.000000pt" viewBox="0 0 1406.000000 732.000000"
 preserveAspectRatio="xMidYMid meet">

<g transform="translate(0.000000,732.000000) scale(0.100000,-0.100000)"
fill="#000000" stroke="none">
<path d="M2612 6450 c-118 -31 -206 -83 -297 -174 -134 -135 -190 -271 -189
-461 1 -130 28 -230 93 -335 l40 -65 -50 -45 c-36 -33 -46 -49 -39 -56 8 -8
-62 -116 -251 -385 -143 -206 -263 -376 -264 -377 -2 -2 -32 10 -67 26 -110
52 -172 66 -293 66 -90 -1 -124 -6 -190 -27 -113 -37 -195 -90 -280 -178 -119
-125 -175 -266 -175 -440 0 -181 54 -319 175 -447 185 -197 439 -257 701 -166
39 13 73 24 76 24 3 0 16 -25 29 -55 17 -41 27 -54 39 -50 12 4 92 -89 303
-350 l286 -356 -35 -46 c-147 -193 -166 -469 -46 -698 49 -94 163 -208 257
-257 116 -61 209 -81 340 -75 128 5 208 28 304 84 190 113 306 307 318 533 9
154 -43 316 -135 429 l-36 44 47 41 c33 28 45 44 38 51 -7 7 70 126 245 375
141 201 259 369 264 373 4 5 39 -10 76 -32 38 -23 105 -54 149 -68 69 -23 97
-27 200 -27 105 0 130 4 200 28 118 41 181 80 270 170 58 58 91 102 118 156
37 75 77 209 77 261 l0 27 73 -19 c89 -23 87 -23 87 1 0 20 7 20 799 20 l800
0 6 -47 c11 -81 53 -205 92 -272 21 -35 70 -94 109 -131 l72 -68 -168 -288
c-116 -201 -172 -289 -183 -288 -11 1 -21 -14 -32 -51 -8 -29 -15 -59 -15 -65
0 -14 -6 -12 -105 26 -92 35 -254 44 -360 20 -344 -81 -562 -425 -490 -771 51
-241 255 -446 501 -501 152 -33 334 -4 472 78 92 54 194 164 241 260 44 90 71
181 71 240 l0 38 385 0 c336 0 385 -2 385 -15 0 -8 1 -15 3 -15 1 0 27 7 57
15 71 19 70 19 70 -7 1 -57 33 -170 71 -248 84 -170 256 -303 445 -346 152
-33 334 -4 472 78 92 54 194 164 241 260 44 90 71 181 71 239 0 74 -27 69 366
69 319 0 354 -2 354 -16 0 -17 3 -17 101 3 26 5 27 4 34 -58 18 -159 81 -287
195 -400 289 -287 770 -239 993 99 64 96 94 178 112 305 l6 47 340 0 c285 0
339 -2 339 -14 0 -12 7 -12 53 0 28 7 57 14 64 14 7 0 14 -24 19 -57 33 -276
222 -498 485 -569 86 -23 242 -23 329 0 181 49 333 173 415 338 98 200 98 386
0 586 -82 165 -234 289 -415 338 -79 21 -234 24 -310 5 -62 -15 -214 -83 -224
-100 -4 -6 -11 -11 -16 -11 -6 0 -315 480 -384 598 -4 7 -3 18 2 25 7 9 -5 25
-40 56 -35 31 -49 39 -45 25 3 -10 11 -38 18 -62 9 -31 16 -41 28 -37 15 4
130 -170 364 -551 l39 -62 -59 -60 c-99 -102 -161 -228 -184 -375 -6 -40 -12
-73 -13 -74 -1 -1 -26 4 -56 12 -68 18 -70 18 -70 0 0 -13 -44 -15 -339 -15
l-339 0 -11 80 c-38 255 -192 447 -431 535 -60 22 -97 29 -185 32 -204 9 -342
-44 -486 -187 -105 -103 -158 -202 -185 -345 -10 -49 -18 -92 -20 -93 -1 -2
-28 2 -60 9 -45 10 -59 10 -62 1 -3 -9 -92 -12 -361 -12 l-358 0 -6 63 c-19
201 -163 405 -352 498 -118 58 -188 72 -320 67 -173 -7 -305 -63 -423 -178
-112 -109 -184 -257 -198 -408 -4 -40 -7 -72 -8 -72 -1 0 -26 7 -56 15 -68 18
-70 18 -70 0 0 -13 -49 -15 -380 -15 l-379 0 -5 33 c-17 118 -30 178 -48 222
-49 115 -136 224 -233 291 l-54 37 44 50 c28 32 41 55 36 61 -6 7 53 119 156
296 90 157 167 287 169 290 3 2 26 -7 52 -22 104 -57 176 -73 322 -73 123 1
141 3 210 29 196 75 348 231 406 419 l18 57 1398 0 c1263 0 1398 -2 1398 -16
0 -10 6 -14 18 -10 9 3 36 10 60 15 70 15 67 18 -50 47 -22 5 -28 3 -28 -10 0
-15 -120 -16 -1399 -16 l-1398 0 9 53 c5 28 6 85 3 125 -4 39 -3 72 2 72 4 0
33 -7 63 -15 30 -8 56 -15 58 -15 1 0 2 7 2 15 0 13 161 15 1393 15 l1392 0 1
-112 c1 -94 6 -127 27 -193 70 -212 220 -363 432 -432 63 -20 101 -26 180 -27
123 -1 183 13 303 70 272 130 416 448 337 746 -85 326 -420 538 -746 474 -88
-18 -210 -69 -267 -113 -18 -14 -35 -23 -36 -22 -2 2 -20 37 -40 77 -32 63
-39 72 -52 61 -18 -14 -6 -25 -153 143 l-103 118 -2907 2 c-2631 3 -2906 4
-2905 19 1 8 55 92 120 187 82 118 124 170 134 167 11 -4 22 12 38 53 l22 58
51 -48 c68 -64 147 -111 244 -144 110 -38 273 -41 385 -6 110 34 196 86 276
166 106 106 170 239 189 389 l7 57 349 0 c304 0 349 -2 349 -15 0 -8 1 -15 3
-15 1 0 27 7 57 15 30 8 58 15 62 15 4 0 10 -26 13 -57 10 -79 48 -197 85
-260 71 -124 204 -233 350 -289 69 -26 85 -28 215 -28 130 0 146 2 215 28 106
40 189 97 265 178 92 100 137 198 170 371 l5 27 405 0 c361 0 405 -2 405 -16
0 -10 6 -14 18 -10 51 15 104 27 106 24 1 -2 9 -41 19 -88 45 -230 217 -422
442 -493 58 -18 93 -22 200 -22 115 0 138 4 203 27 144 52 261 144 341 267 46
72 88 194 98 282 l6 59 328 0 c286 0 329 -2 329 -15 0 -18 11 -19 76 -1 l51
13 6 -63 c12 -123 74 -260 165 -364 53 -61 173 -142 252 -171 33 -12 60 -24
60 -27 0 -3 -50 -103 -112 -223 -80 -157 -117 -219 -129 -219 -13 0 -21 -14
-29 -56 -7 -30 -10 -58 -7 -60 10 -10 77 84 71 99 -3 10 39 103 107 234 l112
218 141 0 c118 0 152 4 211 22 98 31 189 87 265 163 75 76 120 148 158 252 24
66 27 87 27 208 0 121 -3 142 -27 208 -72 198 -216 342 -411 409 -73 25 -96
28 -207 28 -111 0 -134 -3 -207 -28 -243 -84 -419 -303 -440 -549 -7 -75 -6
-75 -80 -55 -37 10 -47 10 -50 0 -4 -10 -79 -13 -332 -13 l-328 0 -6 65 c-8
86 -54 217 -100 287 -83 125 -198 214 -342 265 -72 25 -92 28 -210 27 -114 0
-139 -4 -203 -27 -103 -36 -174 -81 -251 -158 -116 -115 -178 -249 -188 -406
-3 -46 -9 -83 -13 -83 -4 0 -29 7 -56 15 -61 18 -64 18 -64 0 0 -13 -52 -15
-404 -15 l-403 0 -6 68 c-17 174 -75 300 -192 417 -259 260 -656 262 -916 5
-113 -111 -176 -241 -194 -397 -4 -35 -8 -63 -8 -63 -1 0 -27 7 -57 15 -68 18
-70 18 -70 0 0 -13 -45 -15 -349 -15 l-348 0 -7 67 c-15 148 -85 293 -191 398
-209 206 -527 248 -785 102 -71 -39 -198 -166 -237 -237 -68 -121 -99 -269
-82 -400 15 -121 43 -192 129 -326 12 -19 9 -25 -34 -64 -30 -28 -43 -47 -37
-54 11 -15 -220 -345 -257 -367 -17 -10 -28 -26 -30 -44 -3 -21 -147 -242
-238 -364 -2 -2 -15 6 -31 17 -104 73 -244 116 -378 116 -116 0 -195 -19 -305
-71 -105 -51 -240 -186 -292 -293 -90 -186 -93 -400 -10 -582 33 -71 109 -176
152 -210 l29 -23 -260 -370 c-185 -263 -265 -370 -278 -369 -12 0 -23 -12 -31
-35 -33 -92 -23 -88 -85 -34 -226 202 -591 202 -836 0 l-66 -55 -286 356
c-198 245 -284 359 -277 367 6 8 -6 23 -41 49 l-50 37 59 39 c209 140 321 418
268 666 -26 118 -87 234 -165 314 -36 37 -76 74 -89 82 -23 15 -23 16 242 394
169 241 272 379 282 379 11 0 24 19 38 57 l22 58 49 -51 c68 -69 141 -115 238
-151 115 -43 266 -50 382 -19 119 33 209 84 296 171 l76 75 257 -379 c189
-279 253 -382 244 -388 -9 -6 1 -20 37 -52 28 -24 51 -43 53 -41 1 1 -7 28
-18 59 -14 37 -27 56 -38 56 -11 0 -108 134 -273 378 l-257 377 25 43 c39 69
71 163 83 250 38 257 -106 533 -340 656 -141 74 -317 95 -468 56z m293 -5 c39
-8 108 -33 154 -55 67 -33 100 -57 166 -123 90 -90 142 -180 171 -297 24 -96
15 -272 -18 -362 -71 -190 -216 -332 -408 -399 -55 -19 -86 -23 -195 -23 -116
0 -138 3 -203 26 -103 37 -174 82 -252 159 -75 74 -139 187 -167 290 -22 84
-21 234 1 318 89 331 419 536 751 466z m3013 -10 c179 -42 340 -172 421 -339
44 -91 58 -143 67 -242 20 -243 -129 -501 -356 -613 -157 -77 -333 -89 -495
-32 -195 69 -363 254 -410 452 -19 83 -19 229 0 304 59 229 237 408 465 469
72 19 228 20 308 1z m2162 -10 c178 -54 320 -175 400 -340 46 -97 62 -169 61
-285 -2 -459 -483 -764 -902 -572 -171 78 -307 240 -354 423 -20 77 -23 225
-5 300 57 243 245 427 495 485 75 17 229 12 305 -11z m2268 -8 c103 -36 175
-81 252 -157 116 -117 176 -250 186 -412 12 -188 -52 -355 -185 -488 -342
-340 -900 -205 -1062 257 -30 85 -36 230 -15 327 54 240 249 438 486 491 97
22 246 14 338 -18z m2027 18 c288 -60 505 -329 505 -625 0 -290 -202 -548
-486 -620 -397 -102 -794 208 -794 620 0 348 287 636 635 639 39 0 102 -6 140
-14z m-1487 -1687 c92 -106 111 -133 101 -144 -14 -17 -17 -14 60 -68 l61 -43
-21 -19 c-71 -64 -168 -231 -184 -316 l-7 -38 -1399 0 c-1237 0 -1399 2 -1399
15 0 18 1 18 -72 -1 -33 -8 -61 -14 -62 -12 -2 2 -13 37 -26 77 -14 43 -45
106 -72 148 -231 345 -705 394 -999 103 -114 -113 -177 -243 -194 -403 l-7
-67 -799 0 c-778 0 -799 0 -799 19 0 19 -1 19 -72 0 -40 -10 -76 -19 -79 -19
-3 0 -9 31 -13 70 -14 151 -79 292 -191 409 l-53 56 119 170 c93 133 125 171
144 173 14 2 25 8 25 13 0 5 1115 9 2913 8 l2912 0 113 -131z m-9443 -129 c28
-6 88 -29 135 -51 153 -73 284 -230 336 -403 25 -82 25 -258 0 -340 -65 -218
-247 -395 -461 -450 -78 -20 -240 -19 -319 1 -206 53 -383 222 -449 429 -18
58 -22 92 -21 200 0 144 17 206 85 322 71 120 221 238 361 282 91 30 221 33
333 10z m10250 -5 c154 -36 321 -164 397 -304 191 -350 38 -768 -337 -917 -66
-26 -80 -28 -220 -28 -140 0 -155 2 -219 28 -184 73 -322 214 -388 397 -20 57
-23 83 -23 210 1 134 3 150 28 215 124 314 435 477 762 399z m-4240 1 c232
-48 432 -240 490 -470 18 -70 20 -222 4 -297 -15 -72 -67 -181 -118 -248 -190
-253 -554 -324 -831 -163 -138 80 -255 237 -297 394 -21 83 -21 234 2 318 87
330 418 536 750 466z m-3060 -20 c211 -53 387 -225 451 -440 25 -82 25 -248 0
-330 -64 -214 -239 -387 -447 -442 -93 -24 -244 -21 -334 7 -209 65 -381 246
-430 451 -76 326 117 656 440 750 77 23 239 24 320 4z m-1518 -1801 c255 -52
447 -247 499 -504 63 -315 -118 -621 -433 -731 -118 -41 -312 -35 -428 14
-360 151 -508 556 -328 900 50 96 163 210 258 259 142 74 280 94 432 62z
m3503 0 c115 -27 205 -79 301 -174 141 -140 196 -283 187 -484 -9 -173 -77
-318 -205 -436 -230 -210 -568 -225 -821 -35 -217 163 -304 461 -212 723 68
191 241 349 442 402 90 23 220 25 308 4z m2200 0 c115 -27 205 -79 301 -174
65 -65 94 -103 122 -160 129 -265 72 -568 -144 -763 -229 -208 -566 -221 -817
-32 -217 163 -304 460 -212 723 68 191 241 349 442 402 90 23 220 25 308 4z
m2147 1 c195 -46 353 -176 438 -360 42 -90 55 -154 55 -268 0 -179 -56 -314
-184 -443 -93 -93 -202 -154 -321 -179 -329 -69 -664 138 -751 465 -22 84 -23
234 -1 317 59 226 236 404 460 463 88 23 219 25 304 5z m2082 0 c179 -20 378
-164 465 -337 49 -98 69 -184 69 -293 0 -220 -106 -416 -291 -536 -346 -226
-812 -64 -954 331 -20 56 -23 84 -23 205 0 121 3 149 23 205 66 183 208 328
387 395 68 26 185 45 240 39 17 -2 54 -6 84 -9z"/>
<path d="M2528 5973 c7 -3 12 -23 12 -48 0 -25 -5 -45 -12 -48 -7 -3 3 -5 22
-5 19 0 29 2 23 5 -7 2 -13 13 -13 24 0 14 7 19 25 19 18 0 25 -5 25 -19 0
-11 -6 -22 -12 -24 -7 -3 12 -5 42 -5 30 0 49 2 42 5 -19 8 -3 23 25 23 18 0
24 -4 19 -15 -4 -11 1 -15 17 -15 l23 0 -25 55 c-14 30 -29 55 -33 55 -4 0
-17 -22 -29 -50 -29 -67 -52 -67 -47 0 3 48 2 50 -22 49 -14 0 -19 -3 -12 -6
6 -2 12 -13 12 -24 0 -14 -7 -19 -25 -19 -18 0 -25 5 -25 19 0 11 6 22 13 24
6 3 -4 5 -23 5 -19 0 -29 -2 -22 -5z m192 -55 c0 -5 -7 -8 -15 -8 -17 0 -18 2
-9 25 5 13 8 14 15 3 5 -7 9 -16 9 -20z"/>
<path d="M2787 5973 c-15 -15 -5 -40 23 -57 17 -9 28 -22 25 -27 -10 -15 -33
-10 -44 9 -10 16 -10 15 -11 -3 0 -16 7 -21 29 -23 36 -3 59 21 41 43 -6 8
-20 17 -31 20 -22 7 -26 35 -4 35 7 0 19 -8 24 -17 10 -17 10 -16 11 2 0 16
-7 21 -28 23 -16 1 -32 -1 -35 -5z"/>
<path d="M2868 5973 c7 -3 12 -23 12 -48 0 -25 -5 -45 -12 -48 -7 -3 3 -5 22
-5 19 0 29 2 23 5 -7 2 -13 13 -13 24 0 14 7 19 25 19 18 0 25 -5 25 -19 0
-11 -6 -22 -12 -24 -7 -3 -2 -6 12 -6 24 -1 25 2 25 54 0 52 -1 55 -25 54 -14
0 -19 -3 -12 -6 6 -2 12 -13 12 -24 0 -14 -7 -19 -25 -19 -18 0 -25 5 -25 19
0 11 6 22 13 24 6 3 -4 5 -23 5 -19 0 -29 -2 -22 -5z"/>
<path d="M2391 5733 c0 -11 3 -13 6 -5 2 6 11 12 19 12 18 0 19 -71 2 -88 -9
-9 -7 -12 13 -12 23 0 24 3 21 50 -2 27 0 50 5 50 16 0 33 -23 33 -45 0 -12 8
-29 18 -38 34 -31 83 -16 97 30 13 46 -65 84 -96 47 -11 -14 -13 -14 -21 0 -6
11 -24 16 -53 16 -37 0 -45 -3 -44 -17z m177 -5 c17 -17 15 -53 -3 -68 -31
-26 -60 13 -44 58 9 24 29 28 47 10z"/>
<path d="M2665 5695 c0 -45 3 -55 17 -55 11 0 15 6 11 20 -4 15 0 20 15 20 12
0 24 5 28 11 4 7 11 2 18 -12 6 -12 18 -27 27 -32 23 -14 69 0 78 24 7 21 8
20 24 -5 12 -18 26 -26 46 -26 53 0 80 60 43 93 -25 23 -58 21 -82 -3 l-20
-20 -20 20 c-24 24 -57 26 -80 5 -15 -14 -18 -14 -30 0 -7 8 -27 15 -44 15
-31 0 -31 0 -31 -55z m50 20 c0 -10 -6 -20 -12 -22 -8 -3 -13 5 -13 22 0 17 5
25 13 23 6 -3 12 -13 12 -23z m113 13 c17 -17 15 -53 -3 -68 -31 -26 -60 13
-44 58 9 24 29 28 47 10z m130 -31 c4 -41 -17 -59 -43 -37 -18 15 -20 66 -2
73 28 12 42 1 45 -36z"/>
<path d="M2998 5743 c7 -3 12 -23 12 -48 0 -25 -5 -45 -12 -48 -7 -3 10 -6 38
-6 44 -1 52 2 57 20 5 19 4 20 -12 5 -33 -30 -51 -20 -51 28 0 26 5 46 13 49
6 3 -4 5 -23 5 -19 0 -29 -2 -22 -5z"/>
<path d="M5475 5890 c0 -39 3 -50 16 -50 12 0 15 7 12 28 l-4 27 18 -27 c16
-25 24 -28 74 -28 45 0 58 4 64 18 5 14 4 15 -6 5 -21 -21 -49 -16 -49 8 0 16
5 20 20 16 12 -3 20 0 20 8 0 8 -8 11 -20 8 -14 -4 -20 0 -20 12 0 13 6 16 25
13 14 -3 25 -1 25 3 0 5 -17 9 -38 9 l-37 0 3 -45 c3 -36 1 -45 -12 -45 -22 0
-42 40 -26 50 23 14 2 40 -32 40 -33 0 -33 0 -33 -50z m47 25 c0 -5 -5 -11
-11 -13 -6 -2 -11 4 -11 13 0 9 5 15 11 13 6 -2 11 -8 11 -13z"/>
<path d="M5673 5923 c-4 -11 3 -24 22 -39 32 -25 27 -46 -5 -26 -16 10 -20 10
-20 -1 0 -16 40 -20 57 -5 19 16 16 27 -12 40 -14 6 -25 17 -25 25 0 16 12 17
28 1 9 -9 12 -8 12 5 0 23 -48 23 -57 0z"/>
<path d="M5749 5931 c9 -6 12 -22 9 -50 l-4 -41 38 0 c21 0 38 4 38 9 0 4 -11
6 -25 3 -21 -3 -25 0 -25 18 0 17 4 21 20 17 12 -3 20 0 20 8 0 8 -8 11 -20 8
-14 -4 -20 0 -20 12 0 13 6 16 25 13 14 -3 25 -1 25 3 0 5 -21 9 -47 9 -31 0
-43 -3 -34 -9z"/>
<path d="M5845 5890 l0 -50 36 0 c26 0 39 5 44 18 5 14 4 15 -6 5 -21 -21 -49
-16 -49 8 0 16 5 20 20 16 12 -3 20 0 20 8 0 8 -8 11 -20 8 -14 -4 -20 0 -20
12 0 13 6 16 25 13 14 -3 25 -1 25 3 0 5 -17 9 -37 9 l-38 0 0 -50z"/>
<path d="M5935 5890 l0 -50 37 0 c29 0 41 6 54 25 15 23 15 27 0 50 -13 19
-25 25 -54 25 l-37 0 0 -50z m59 34 c35 -13 14 -74 -25 -74 -5 0 -9 18 -9 40
0 40 5 45 34 34z"/>
<path d="M5325 5680 c0 -39 3 -50 16 -50 12 0 15 7 11 27 -4 21 -2 25 12 20 9
-4 16 -2 16 3 0 6 -7 10 -15 10 -8 0 -15 7 -15 15 0 11 9 15 31 13 30 -2 31
-4 27 -45 -3 -40 -2 -43 22 -42 14 0 19 3 13 6 -7 2 -13 14 -13 26 1 21 2 20
21 -5 11 -16 28 -28 37 -28 12 0 10 6 -8 26 -20 20 -22 27 -11 34 8 4 11 15 8
24 -5 13 -22 16 -79 16 l-73 0 0 -50z m135 25 c0 -8 -7 -15 -15 -15 -8 0 -15
7 -15 15 0 8 7 15 15 15 8 0 15 -7 15 -15z"/>
<path d="M5514 5705 c-15 -23 -15 -27 0 -50 29 -44 86 -28 86 25 0 53 -57 69
-86 25z m61 -25 c0 -41 -27 -53 -45 -21 -14 27 4 64 28 59 12 -2 17 -13 17
-38z"/>
<path d="M5618 5718 c7 -7 12 -24 12 -38 0 -14 -5 -31 -12 -38 -9 -9 -7 -12 8
-12 17 0 20 5 17 33 l-3 32 16 -35 16 -35 19 35 20 35 -4 -32 c-3 -25 0 -33
12 -33 12 0 16 11 16 50 0 61 -18 66 -41 13 l-17 -38 -15 38 c-10 26 -21 37
-35 37 -16 0 -18 -3 -9 -12z"/>
<path d="M5795 5680 c0 -43 3 -50 20 -50 15 0 16 3 7 12 -17 17 -15 28 6 28
10 0 23 5 29 11 7 7 12 3 17 -15 13 -53 96 -41 96 14 0 44 -52 66 -83 35 -13
-13 -16 -13 -27 0 -7 8 -24 15 -39 15 -25 0 -26 -3 -26 -50z m50 20 c0 -22
-29 -18 -33 3 -3 14 1 18 15 15 10 -2 18 -10 18 -18z m100 0 c14 -44 -15 -76
-43 -48 -23 23 -7 68 24 68 7 0 16 -9 19 -20z"/>
<path d="M5996 5714 c-32 -31 -8 -84 38 -84 29 0 46 18 46 50 0 14 -5 31 -12
38 -17 17 -54 15 -72 -4z m59 -14 c14 -44 -15 -76 -43 -48 -23 23 -7 68 24 68
7 0 16 -9 19 -20z"/>
<path d="M6095 5680 l0 -51 39 3 c24 2 41 9 44 18 4 12 2 13 -9 3 -7 -7 -22
-13 -32 -13 -16 0 -19 6 -15 45 2 35 0 45 -12 45 -11 0 -15 -12 -15 -50z"/>
<path d="M6193 5713 c-4 -11 3 -24 22 -39 32 -25 27 -46 -5 -26 -16 10 -20 10
-20 -1 0 -16 40 -20 57 -5 19 16 16 27 -12 40 -14 6 -25 17 -25 25 0 16 12 17
28 1 9 -9 12 -8 12 5 0 23 -48 23 -57 0z"/>
<path d="M7536 5808 c-21 -29 -20 -51 2 -71 21 -19 50 -22 72 -7 11 8 9 9 -10
5 -39 -8 -55 9 -51 57 1 22 38 33 56 18 12 -10 15 -10 15 2 0 9 -12 15 -34 16
-26 2 -38 -3 -50 -20z"/>
<path d="M7638 5823 c7 -3 12 -23 12 -48 0 -25 -5 -45 -12 -48 -7 -3 25 -5 72
-5 47 0 79 2 73 5 -7 2 -13 14 -13 26 1 21 2 21 25 -5 13 -16 32 -28 41 -28
13 0 11 4 -7 19 -21 17 -22 22 -11 41 19 31 -1 50 -52 49 -22 0 -35 -3 -28 -6
14 -6 17 -93 2 -93 -5 0 -10 8 -10 18 -1 16 -1 16 -11 0 -5 -10 -19 -18 -29
-18 -17 0 -20 7 -20 44 0 26 5 46 13 49 6 3 -4 5 -23 5 -19 0 -29 -2 -22 -5z
m160 -20 c-5 -25 -28 -28 -28 -4 0 12 6 21 16 21 9 0 14 -7 12 -17z"/>
<path d="M7907 5823 c-15 -15 -5 -40 23 -57 17 -9 28 -22 25 -27 -10 -15 -33
-10 -44 9 -10 16 -10 15 -11 -3 0 -16 7 -21 29 -23 36 -3 59 21 41 43 -6 8
-20 17 -31 20 -22 7 -26 35 -4 35 7 0 19 -8 24 -17 10 -17 10 -16 11 2 0 16
-7 21 -28 23 -16 1 -32 -1 -35 -5z"/>
<path d="M7995 5775 c0 -52 1 -55 25 -54 14 0 19 3 13 6 -7 2 -13 13 -13 24 0
14 7 19 26 19 23 0 26 -3 22 -25 -5 -24 -3 -25 38 -25 34 0 42 3 38 15 -5 11
1 15 21 15 20 0 26 -4 21 -15 -4 -11 1 -15 19 -15 22 0 23 1 10 28 -8 15 -18
39 -24 55 -6 15 -14 27 -19 27 -4 0 -18 -22 -29 -50 -28 -65 -53 -68 -53 -6 0
26 5 46 13 49 6 3 0 6 -14 6 -23 1 -26 -2 -21 -24 4 -22 1 -25 -22 -25 -19 0
-26 5 -26 19 0 11 6 22 13 24 6 3 1 6 -13 6 -24 1 -25 -2 -25 -54z m185 -1 c0
-8 -6 -14 -14 -14 -9 0 -12 7 -9 20 6 22 23 18 23 -6z"/>
<path d="M9918 5923 c7 -3 12 -23 12 -48 0 -25 -5 -45 -12 -48 -7 -3 -1 -6 13
-6 23 -1 26 2 21 24 -4 22 -1 25 22 25 19 0 26 -5 26 -19 0 -11 -6 -22 -12
-24 -7 -3 8 -6 35 -6 32 -1 46 3 45 12 -2 7 7 12 22 12 15 0 24 -5 23 -12 -2
-8 8 -13 25 -13 16 0 22 3 15 8 -6 4 -21 29 -32 55 -11 26 -23 47 -26 47 -3 0
-15 -21 -28 -47 -32 -67 -50 -69 -46 -4 4 49 3 51 -21 50 -14 0 -19 -3 -12 -6
6 -2 12 -13 12 -24 0 -14 -7 -19 -26 -19 -23 0 -26 3 -22 25 5 22 2 25 -21 24
-14 0 -20 -3 -13 -6z m186 -48 c4 -10 -1 -15 -14 -15 -13 0 -18 5 -14 15 4 8
10 15 14 15 4 0 10 -7 14 -15z"/>
<path d="M10177 5923 c-15 -15 -5 -44 18 -55 27 -12 34 -38 10 -38 -7 0 -19 8
-24 18 -10 16 -10 16 -11 0 0 -19 41 -35 59 -23 21 13 11 45 -19 60 -17 9 -28
20 -25 25 10 16 33 12 44 -7 10 -17 10 -16 11 2 0 16 -7 21 -28 23 -16 1 -32
-1 -35 -5z"/>
<path d="M10258 5923 c7 -3 12 -23 12 -48 0 -25 -5 -45 -12 -48 -7 -3 3 -5 22
-5 19 0 29 2 23 5 -7 2 -13 13 -13 24 0 14 7 19 25 19 18 0 25 -5 25 -19 0
-11 -6 -22 -12 -24 -7 -3 -2 -6 12 -6 24 -1 25 2 25 54 0 52 -1 55 -25 54 -14
0 -19 -3 -12 -6 6 -2 12 -13 12 -24 0 -14 -7 -19 -25 -19 -18 0 -25 5 -25 19
0 11 6 22 13 24 6 3 -4 5 -23 5 -19 0 -29 -2 -22 -5z"/>
<path d="M9841 5703 c0 -11 3 -13 6 -5 2 6 11 12 19 12 18 0 20 -86 2 -93 -7
-3 -2 -6 12 -6 24 -1 25 1 22 49 -4 50 3 61 26 38 9 -9 12 -8 12 5 0 14 -10
17 -50 17 -41 0 -50 -3 -49 -17z"/>
<path d="M9960 5700 c-24 -24 -25 -38 -4 -68 29 -42 104 -18 104 35 0 25 -30
53 -58 53 -12 0 -31 -9 -42 -20z m68 -33 c4 -41 -17 -59 -43 -37 -18 15 -20
66 -2 73 28 12 42 1 45 -36z"/>
<path d="M10115 5665 c0 -52 1 -55 25 -54 14 0 19 3 13 6 -7 2 -13 14 -13 25
0 25 22 19 35 -10 9 -20 17 -22 82 -22 62 0 73 3 73 17 0 13 -3 14 -12 5 -20
-20 -48 -15 -48 9 0 16 5 20 20 16 12 -3 20 0 20 8 0 8 -8 11 -20 8 -16 -4
-20 0 -20 17 0 18 4 21 25 18 14 -3 25 -1 25 3 0 5 -21 9 -47 8 -27 0 -42 -3
-35 -6 7 -3 12 -23 12 -49 0 -56 -19 -58 -72 -9 -40 37 -46 50 -25 58 6 3 1 6
-13 6 -24 1 -25 -2 -25 -54z"/>
<path d="M10173 5713 c4 -3 2 -12 -4 -20 -17 -19 2 -15 31 7 l25 20 -29 0
c-16 0 -26 -3 -23 -7z"/>
<path d="M10356 5693 c18 -20 24 -36 22 -55 -4 -24 -1 -28 20 -28 20 0 22 3
13 14 -14 17 8 68 36 85 15 9 14 10 -10 11 -17 0 -26 -4 -22 -10 4 -6 1 -17
-5 -26 -11 -12 -14 -12 -25 3 -10 14 -10 20 -2 25 7 4 -2 8 -20 8 l-32 0 25
-27z"/>
<path d="M11978 5943 c7 -3 12 -23 12 -48 0 -25 -5 -45 -12 -48 -7 -3 3 -5 22
-5 19 0 29 2 23 5 -7 2 -13 14 -13 26 1 21 2 21 25 -6 23 -26 30 -28 87 -25
44 2 63 7 66 18 4 12 2 13 -9 3 -22 -22 -59 -16 -59 8 0 17 5 20 25 17 16 -3
25 -1 25 7 0 8 -9 10 -25 7 -21 -3 -25 0 -25 18 0 19 4 22 30 18 17 -3 30 -1
30 4 0 4 -19 8 -42 8 l-43 0 3 -50 c4 -53 -11 -67 -39 -34 -10 13 -10 20 0 36
18 29 -2 48 -53 47 -22 0 -35 -3 -28 -6z m60 -20 c-5 -25 -28 -28 -28 -4 0 12
6 21 16 21 9 0 14 -7 12 -17z"/>
<path d="M12207 5943 c-15 -15 -5 -40 23 -57 17 -9 28 -22 25 -27 -10 -15 -33
-10 -44 9 -10 16 -10 15 -11 -3 0 -16 7 -21 29 -23 36 -3 59 21 41 43 -6 8
-20 17 -31 20 -22 7 -26 35 -4 35 7 0 19 -8 24 -17 10 -17 10 -16 11 2 0 16
-7 21 -28 23 -16 1 -32 -1 -35 -5z"/>
<path d="M12295 5895 l0 -56 44 3 c29 2 46 8 49 18 4 12 2 13 -9 3 -22 -22
-59 -16 -59 8 0 17 5 20 25 17 16 -3 25 -1 25 7 0 8 -9 10 -25 7 -21 -3 -25 0
-25 18 0 19 4 22 30 18 17 -3 30 -1 30 4 0 4 -19 8 -42 8 l-43 0 0 -55z"/>
<path d="M12390 5933 c0 -13 3 -14 12 -5 23 23 30 12 26 -38 -3 -48 -2 -50 22
-49 14 0 19 3 13 6 -19 7 -17 93 1 93 8 0 17 -6 19 -12 3 -8 6 -6 6 5 1 14 -8
17 -49 17 -40 0 -50 -3 -50 -17z"/>
<path d="M11988 5704 c7 -3 12 -24 12 -49 0 -25 -5 -45 -12 -48 -7 -3 -1 -6
14 -6 21 -1 25 3 21 18 -4 15 1 20 19 23 18 2 23 9 23 33 0 29 -2 30 -45 32
-25 1 -39 0 -32 -3z m57 -29 c0 -10 -6 -20 -12 -22 -8 -3 -13 5 -13 22 0 17 5
25 13 23 6 -3 12 -13 12 -23z"/>
<path d="M12097 5692 c-46 -50 13 -114 74 -82 10 6 19 18 19 28 1 13 6 10 21
-10 14 -19 30 -28 48 -28 53 0 80 60 43 93 -25 23 -58 21 -82 -3 l-20 -20 -20
20 c-25 25 -62 26 -83 2z m61 -4 c17 -17 15 -53 -3 -68 -31 -26 -60 13 -44 58
9 24 29 28 47 10z m130 -31 c4 -41 -17 -59 -43 -37 -18 15 -20 66 -2 73 28 12
42 1 45 -36z"/>
<path d="M12328 5703 c7 -3 12 -23 12 -48 0 -25 -5 -45 -12 -48 -7 -3 10 -6
38 -6 44 -1 52 2 57 20 5 19 4 20 -12 5 -33 -30 -51 -20 -51 28 0 26 5 46 13
49 6 3 -4 5 -23 5 -19 0 -29 -2 -22 -5z"/>
<path d="M12447 5703 c-15 -15 -5 -44 18 -55 27 -12 34 -38 10 -38 -7 0 -19 8
-24 18 -10 16 -10 16 -11 0 0 -19 41 -35 59 -23 21 13 11 45 -19 60 -17 9 -28
20 -25 25 10 16 33 12 44 -7 10 -17 10 -16 11 2 0 16 -7 21 -28 23 -16 1 -32
-1 -35 -5z"/>
<path d="M942 4023 c-25 -9 -34 -53 -17 -79 18 -29 66 -32 86 -7 13 15 12 15
-9 2 -30 -19 -57 -2 -57 36 0 39 28 55 54 31 19 -17 21 -17 21 -3 0 10 5 17
10 17 15 0 12 -87 -2 -93 -7 -3 10 -6 38 -6 44 -1 52 2 57 20 5 19 4 20 -12 5
-33 -30 -51 -20 -51 28 0 26 5 46 13 49 16 7 -114 6 -131 0z"/>
<path d="M1138 4024 c7 -3 12 -24 12 -49 0 -25 -5 -45 -12 -48 -7 -3 -1 -6 13
-6 23 -1 26 2 22 27 l-4 27 21 -27 c12 -16 31 -28 41 -28 18 0 17 3 -8 25 -22
19 -25 27 -15 34 8 4 12 17 10 27 -2 15 -13 19 -48 21 -25 1 -39 0 -32 -3z
m57 -24 c0 -7 -6 -15 -12 -17 -8 -3 -13 4 -13 17 0 13 5 20 13 18 6 -3 12 -11
12 -18z"/>
<path d="M1307 4023 c-15 -15 -5 -44 18 -55 27 -12 34 -38 10 -38 -7 0 -19 8
-24 18 -10 16 -10 16 -11 0 0 -19 41 -35 59 -23 21 13 11 45 -19 60 -17 9 -28
20 -25 25 10 16 33 12 44 -7 10 -17 10 -16 11 2 0 16 -7 21 -28 23 -16 1 -32
-1 -35 -5z"/>
<path d="M1388 4023 c7 -3 12 -23 12 -48 0 -25 -5 -45 -12 -48 -7 -3 -1 -6 13
-6 23 -1 26 2 21 24 -4 22 -1 25 22 25 19 0 26 -5 26 -19 0 -11 -6 -22 -12
-24 -7 -3 8 -6 35 -6 32 -1 46 3 45 12 -2 7 7 12 22 12 15 0 24 -5 23 -12 -2
-8 8 -13 25 -13 16 0 22 3 15 8 -6 4 -21 29 -32 55 -11 26 -23 47 -26 47 -3 0
-15 -21 -28 -47 -32 -67 -50 -69 -46 -4 4 49 3 51 -21 50 -14 0 -19 -3 -12 -6
6 -2 12 -13 12 -24 0 -14 -7 -19 -26 -19 -23 0 -26 3 -22 25 5 22 2 25 -21 24
-14 0 -20 -3 -13 -6z m186 -48 c4 -10 -1 -15 -14 -15 -13 0 -18 5 -14 15 4 8
10 15 14 15 4 0 10 -7 14 -15z"/>
<path d="M11087 4112 c-23 -25 -22 -69 2 -82 11 -5 33 -10 50 -10 23 0 31 5
31 18 0 10 5 23 12 30 9 9 6 12 -16 12 -25 0 -27 -2 -16 -15 17 -21 -1 -39
-28 -30 -26 8 -36 38 -22 65 13 25 45 26 59 3 10 -16 10 -16 11 2 0 29 -59 33
-83 7z"/>
<path d="M11198 4118 c15 -15 16 -70 0 -86 -9 -9 6 -12 67 -11 43 1 73 4 66 8
-7 5 -11 22 -9 40 l3 33 30 -41 c17 -22 33 -41 38 -41 4 0 7 23 7 50 0 39 3
50 16 50 13 0 15 -9 12 -50 l-3 -50 41 0 c31 0 44 5 49 18 5 14 4 15 -6 5 -22
-22 -59 -16 -59 8 0 17 5 20 25 17 16 -3 25 -1 25 7 0 8 -9 10 -25 7 -21 -3
-25 0 -25 18 0 19 4 22 30 18 17 -3 30 -1 30 4 0 4 -32 8 -72 8 -56 0 -69 -3
-60 -12 14 -14 16 -48 2 -48 -5 0 -19 14 -32 30 -12 17 -30 30 -42 29 -12 0
-15 -3 -8 -6 14 -6 17 -93 2 -93 -5 0 -10 5 -10 12 0 9 -3 9 -12 0 -7 -7 -22
-12 -35 -12 -17 0 -23 6 -23 21 0 17 5 20 25 17 16 -3 25 -1 25 7 0 8 -9 10
-25 7 -21 -3 -25 0 -25 18 0 19 4 22 30 18 17 -3 30 -1 30 4 0 4 -21 8 -47 8
-37 0 -44 -3 -35 -12z"/>
<path d="M11528 4124 c7 -3 12 -24 12 -49 0 -25 -5 -45 -12 -48 -7 -3 -1 -6
13 -6 23 -1 26 2 22 27 l-4 27 21 -27 c16 -21 30 -28 56 -28 22 0 33 4 32 13
-2 7 7 12 22 12 15 0 24 -5 23 -12 -2 -8 8 -13 25 -13 16 0 22 3 15 8 -6 4
-21 29 -32 55 -11 26 -23 47 -26 47 -3 0 -15 -20 -26 -45 -25 -56 -36 -63 -63
-36 -17 17 -18 23 -8 30 8 5 12 17 10 27 -2 15 -13 19 -48 21 -25 1 -39 0 -32
-3z m57 -24 c0 -7 -6 -15 -12 -17 -8 -3 -13 4 -13 17 0 13 5 20 13 18 6 -3 12
-11 12 -18z m119 -25 c4 -10 -1 -15 -14 -15 -13 0 -18 5 -14 15 4 8 10 15 14
15 4 0 10 -7 14 -15z"/>
<path d="M11761 4113 c0 -11 3 -13 6 -5 2 6 11 12 19 12 18 0 20 -86 2 -93 -7
-3 -2 -6 12 -6 24 -1 25 1 22 49 -4 50 3 61 26 38 9 -9 12 -9 12 0 0 7 5 12
10 12 15 0 12 -87 -2 -93 -7 -3 11 -6 40 -6 43 -1 52 2 52 16 0 13 -3 14 -12
5 -20 -20 -48 -15 -48 9 0 16 5 20 20 16 12 -3 20 0 20 8 0 8 -8 11 -20 8 -16
-4 -20 0 -20 17 0 18 4 21 25 18 14 -3 25 -1 25 3 0 5 -43 9 -95 9 -84 0 -95
-2 -94 -17z"/>
<path d="M11228 3908 c16 -16 15 -71 0 -87 -11 -10 -3 -12 37 -9 l50 3 1 40
c1 53 -10 65 -59 65 -32 0 -38 -3 -29 -12z m65 -12 c7 -18 -1 -26 -25 -26 -11
0 -18 7 -18 20 0 23 35 28 43 6z m2 -56 c0 -8 -10 -16 -22 -18 -18 -3 -23 2
-23 18 0 16 5 21 23 18 12 -2 22 -10 22 -18z"/>
<path d="M11338 3913 c7 -3 12 -23 12 -48 0 -25 -5 -45 -12 -48 -7 -3 11 -6
40 -6 48 -1 52 1 52 22 -1 20 -2 20 -11 5 -5 -10 -19 -18 -29 -18 -17 0 -20 7
-20 44 0 26 5 46 13 49 6 3 -4 5 -23 5 -19 0 -29 -2 -22 -5z"/>
<path d="M11456 3904 c-23 -22 -20 -71 3 -84 28 -14 57 -12 75 6 34 34 9 94
-39 94 -13 0 -31 -7 -39 -16z m62 -6 c30 -30 -2 -93 -36 -71 -21 13 -27 50
-12 69 15 17 32 18 48 2z"/>
<path d="M11576 3898 c-21 -29 -20 -51 2 -71 21 -19 50 -22 72 -6 12 9 12 10
-4 5 -44 -15 -71 17 -55 62 9 24 38 29 57 10 9 -9 12 -9 12 3 0 10 -12 16 -34
17 -26 2 -38 -3 -50 -20z"/>
<path d="M11685 3865 c0 -52 1 -55 25 -54 14 0 19 3 13 6 -7 2 -13 14 -13 25
0 20 1 20 20 3 11 -10 17 -22 14 -26 -3 -5 9 -9 25 -9 l31 0 -36 33 -37 33 34
22 34 22 -28 0 c-16 0 -26 -4 -22 -9 3 -6 -4 -15 -15 -21 -16 -8 -20 -8 -20 4
0 8 6 17 13 19 6 3 1 6 -13 6 -24 1 -25 -2 -25 -54z"/>
<path d="M6997 4102 c-22 -24 -21 -55 1 -75 52 -47 132 23 83 72 -26 26 -63
27 -84 3z m61 -4 c17 -17 15 -53 -3 -68 -31 -26 -60 13 -44 58 9 24 29 28 47
10z"/>
<path d="M7108 4107 c6 -7 12 -30 14 -52 3 -35 6 -40 31 -43 39 -5 57 14 57
59 0 38 13 52 23 27 4 -10 6 -10 6 0 1 6 8 12 16 12 19 0 21 -70 3 -88 -9 -9
-7 -12 13 -12 23 0 24 3 21 50 -4 50 3 61 26 38 9 -9 12 -9 12 1 0 7 5 9 10 6
14 -9 13 -68 -2 -83 -9 -9 -5 -12 18 -11 16 0 23 3 17 6 -21 8 -15 31 8 35 31
4 46 32 30 52 -11 13 -35 16 -120 16 l-106 0 0 -47 c0 -41 -3 -48 -20 -48 -26
0 -44 48 -27 75 11 18 9 20 -14 20 -20 0 -24 -3 -16 -13z m287 -22 c0 -28 -29
-25 -33 3 -3 19 0 23 15 20 10 -2 18 -12 18 -23z"/>
<path d="M7428 4113 c6 -2 12 -21 12 -42 0 -42 14 -61 45 -61 31 0 45 19 45
62 0 37 13 51 23 26 4 -10 6 -10 6 0 1 6 8 12 16 12 19 0 21 -86 3 -93 -7 -3
-2 -6 12 -6 24 -1 25 1 22 49 -4 50 3 61 26 38 9 -9 12 -8 12 5 0 15 -11 17
-77 16 -43 0 -72 -3 -65 -6 17 -7 15 -68 -3 -83 -28 -24 -47 -4 -43 45 3 42 2
45 -22 44 -14 0 -19 -3 -12 -6z"/>
<path d="M7045 3855 l0 -56 45 3 45 3 1 40 c1 52 -10 65 -55 65 l-36 0 0 -55z
m68 31 c7 -18 -1 -26 -25 -26 -11 0 -18 7 -18 20 0 23 35 28 43 6z m2 -56 c0
-8 -10 -16 -22 -18 -18 -3 -23 2 -23 18 0 16 5 21 23 18 12 -2 22 -10 22 -18z"/>
<path d="M7158 3903 c7 -3 12 -23 12 -48 0 -25 -5 -45 -12 -48 -7 -3 11 -6 40
-6 48 -1 52 1 52 22 -1 20 -2 20 -11 5 -5 -10 -19 -18 -29 -18 -17 0 -20 7
-20 44 0 26 5 46 13 49 6 3 -4 5 -23 5 -19 0 -29 -2 -22 -5z"/>
<path d="M7277 3892 c-22 -24 -21 -55 1 -75 52 -47 132 23 83 72 -26 26 -63
27 -84 3z m61 -4 c17 -17 15 -53 -3 -68 -31 -26 -60 13 -44 58 9 24 29 28 47
10z"/>
<path d="M7408 3899 c-21 -12 -24 -69 -6 -87 17 -17 63 -15 79 5 13 15 12 15
-9 2 -30 -19 -57 -2 -57 36 0 39 28 55 54 31 21 -19 21 -19 21 0 0 14 -8 20
-33 21 -17 1 -40 -2 -49 -8z"/>
<path d="M7509 3864 c2 -32 -1 -49 -10 -55 -9 -6 -2 -8 21 -8 19 0 29 3 23 6
-7 2 -13 14 -13 25 0 20 1 20 20 3 11 -10 17 -22 14 -26 -3 -5 9 -9 25 -9 l31
0 -36 33 -37 33 34 22 34 22 -28 0 c-16 0 -26 -4 -22 -9 3 -6 -4 -15 -15 -21
-16 -8 -20 -8 -20 4 0 8 6 17 13 19 6 3 1 6 -13 6 -24 1 -25 -1 -21 -45z"/>
<path d="M3908 4044 c7 -4 12 -27 12 -64 0 -37 -5 -60 -12 -63 -7 -3 5 -6 27
-6 30 -1 36 2 27 11 -13 13 -16 48 -4 48 4 0 16 -14 27 -30 19 -29 22 -30 101
-30 65 0 83 3 88 16 10 26 7 28 -13 10 -27 -25 -55 -17 -59 17 -4 29 6 35 26
15 9 -9 12 -6 12 17 0 23 -3 26 -12 17 -19 -19 -28 -14 -28 13 0 19 5 25 23
25 13 0 28 -5 35 -12 9 -9 12 -8 12 5 0 14 -10 17 -62 16 -35 0 -57 -3 -50 -6
8 -3 12 -26 12 -64 0 -67 -14 -77 -49 -32 -20 25 -20 27 -4 45 29 33 6 53 -63
55 -32 1 -53 0 -46 -3z m82 -19 c10 -12 10 -18 0 -30 -21 -25 -40 -18 -40 15
0 33 19 40 40 15z"/>
<path d="M4228 3981 l-34 -71 25 1 c14 0 20 3 14 6 -26 10 -13 33 18 33 26 0
31 -3 26 -20 -5 -19 0 -20 79 -20 96 0 124 16 124 70 0 47 -31 70 -92 69 -29
0 -47 -3 -40 -6 18 -7 17 -123 -2 -123 -19 0 -31 17 -52 70 -9 25 -20 49 -25
54 -4 5 -23 -24 -41 -63z m200 47 c17 -17 15 -83 -3 -98 -24 -20 -35 -2 -35
56 0 55 12 68 38 42z m-165 -48 c4 -15 0 -20 -14 -20 -17 0 -18 3 -9 20 6 11
12 20 14 20 2 0 6 -9 9 -20z"/>
<path d="M4520 4008 c31 -43 39 -83 18 -91 -7 -3 7 -6 32 -6 35 0 41 2 28 10
-26 15 -22 40 12 87 28 39 29 42 9 42 -11 0 -17 -4 -14 -10 4 -6 -1 -23 -10
-37 l-18 -26 -14 27 c-8 14 -11 31 -8 36 4 6 -9 10 -29 10 l-36 0 30 -42z"/>
<path d="M2303 2273 c-9 -21 -24 -46 -32 -55 -13 -16 -12 -18 7 -18 12 0 21 6
20 13 -2 7 7 12 22 12 15 0 24 -5 23 -12 -3 -14 100 -19 132 -7 27 11 38 53
20 80 -12 19 -24 24 -58 24 l-42 0 3 -50 c5 -66 -19 -69 -44 -5 -9 25 -21 48
-25 51 -5 3 -17 -12 -26 -33z m165 15 c27 -27 7 -78 -30 -78 -15 0 -18 8 -18
45 0 37 3 45 18 45 10 0 23 -5 30 -12z m-134 -33 c4 -10 -1 -15 -14 -15 -13 0
-18 5 -14 15 4 8 10 15 14 15 4 0 10 -7 14 -15z"/>
<path d="M2518 2303 c7 -3 12 -23 12 -48 0 -25 -5 -45 -12 -48 -7 -3 8 -6 33
-6 50 -1 79 19 79 56 0 33 -32 53 -81 52 -24 0 -38 -3 -31 -6z m76 -19 c9 -8
16 -22 16 -29 0 -18 -28 -45 -46 -45 -10 0 -14 13 -14 45 0 49 15 59 44 29z"/>
<path d="M2688 2298 c16 -16 15 -71 0 -87 -11 -10 -3 -12 36 -9 33 2 51 8 54
18 4 12 2 13 -9 3 -22 -22 -59 -16 -59 8 0 17 5 20 25 17 16 -3 25 -1 25 7 0
8 -9 10 -25 7 -21 -3 -25 0 -25 18 0 19 4 22 30 18 17 -3 30 -1 30 4 0 4 -21
8 -47 8 -37 0 -44 -3 -35 -12z"/>
<path d="M2786 2302 c6 -4 21 -29 32 -55 12 -27 25 -46 30 -43 5 3 17 26 26
51 25 64 49 61 44 -5 l-3 -50 41 0 c31 0 44 5 49 18 5 14 4 15 -6 5 -22 -22
-59 -16 -59 8 0 17 5 20 25 17 16 -3 25 -1 25 7 0 8 -9 10 -25 7 -20 -3 -25 0
-25 16 0 19 6 21 45 20 l45 -1 0 -36 c0 -20 -5 -42 -12 -49 -9 -9 -8 -12 8
-12 17 0 19 6 17 38 l-4 37 35 -40 36 -40 0 47 c0 26 5 50 10 53 6 3 10 1 10
-6 0 -10 3 -10 12 -1 23 23 30 12 26 -38 -3 -48 -2 -50 22 -49 14 0 19 3 13 6
-19 7 -17 93 1 93 8 0 17 -6 19 -12 3 -8 6 -6 6 5 1 15 -9 17 -76 16 -43 0
-72 -3 -65 -6 6 -2 12 -19 12 -35 l0 -31 -27 36 -28 36 -92 1 c-73 0 -91 -3
-87 -13 3 -8 0 -27 -6 -43 l-12 -29 -15 28 c-8 16 -12 35 -9 43 4 10 -2 14
-22 14 -15 0 -22 -4 -16 -8z"/>
<path d="M2391 2073 c0 -10 3 -13 6 -5 2 6 11 12 19 12 18 0 19 -71 2 -88 -9
-9 -7 -12 13 -12 23 0 24 3 21 50 -4 51 3 60 27 38 11 -11 13 -10 9 2 -3 10
-20 16 -51 18 -40 3 -47 0 -46 -15z"/>
<path d="M2510 2070 c-24 -24 -25 -38 -4 -68 29 -42 104 -18 104 35 0 25 -30
53 -58 53 -12 0 -31 -9 -42 -20z m68 -33 c4 -41 -17 -59 -43 -37 -18 15 -20
66 -2 73 28 12 42 1 45 -36z"/>
<path d="M2665 2035 c0 -45 3 -55 17 -55 11 0 15 6 11 20 -4 15 0 20 15 20 12
0 24 5 28 11 3 6 14 -2 25 -20 22 -36 66 -42 92 -13 50 55 -30 125 -82 73 -18
-18 -18 -18 -30 0 -7 12 -23 19 -44 19 l-32 0 0 -55z m50 20 c0 -10 -6 -20
-12 -22 -8 -3 -13 5 -13 22 0 17 5 25 13 23 6 -3 12 -13 12 -23z m123 -18 c4
-41 -17 -59 -43 -37 -18 15 -20 66 -2 73 28 12 42 1 45 -36z"/>
<path d="M2896 2074 c-23 -22 -20 -71 3 -84 28 -14 57 -12 75 6 34 34 9 94
-39 94 -13 0 -31 -7 -39 -16z m62 -6 c30 -30 -2 -93 -36 -71 -21 13 -27 50
-12 69 15 17 32 18 48 2z"/>
<path d="M3005 2035 l0 -56 45 3 c36 2 46 7 48 23 4 19 3 19 -10 1 -22 -29
-52 -17 -56 22 -2 18 2 40 9 48 9 11 7 14 -12 14 -22 0 -24 -4 -24 -55z"/>
<path d="M5875 2155 c0 -52 1 -55 25 -54 14 0 19 3 13 6 -13 5 -19 43 -7 43 3
0 15 -11 26 -25 17 -22 27 -25 84 -25 54 0 64 3 64 17 0 13 -3 14 -12 5 -20
-20 -48 -15 -48 9 0 16 5 20 20 16 12 -3 20 0 20 8 0 8 -8 11 -20 8 -16 -4
-20 0 -20 17 0 18 4 21 25 18 14 -3 25 -1 25 3 0 5 -21 9 -47 8 -27 0 -42 -3
-35 -6 18 -7 16 -93 -2 -93 -15 0 -46 26 -46 39 0 4 5 12 11 18 21 21 2 43
-38 43 l-38 0 0 -55z m60 25 c0 -8 -8 -16 -17 -18 -13 -2 -18 3 -18 18 0 15 5
20 18 18 9 -2 17 -10 17 -18z"/>
<path d="M6107 2192 c-38 -42 -5 -96 54 -90 26 2 34 9 40 31 7 24 5 27 -19 27
-20 0 -23 -3 -13 -9 17 -11 7 -41 -13 -41 -8 0 -21 9 -29 21 -32 44 15 88 55
52 21 -18 21 -18 9 5 -15 27 -61 30 -84 4z"/>
<path d="M6218 2203 c7 -3 12 -23 12 -48 0 -25 -5 -45 -12 -48 -7 -3 23 -5 67
-5 44 0 74 2 68 5 -7 2 -13 21 -13 41 l0 37 40 -45 39 -45 1 52 c0 31 5 53 13
56 6 3 -1 5 -18 5 -16 0 -24 -2 -17 -5 6 -2 12 -19 12 -36 l-1 -32 -30 38
c-31 37 -32 37 -102 36 -40 0 -66 -3 -59 -6z m112 -49 c0 -24 -4 -44 -10 -44
-5 0 -10 5 -10 12 0 9 -3 9 -12 0 -20 -20 -48 -15 -48 9 0 16 5 20 20 16 12
-3 20 0 20 8 0 8 -8 11 -20 8 -15 -4 -20 0 -20 15 0 18 6 21 40 20 l40 0 0
-44z"/>
<path d="M6509 2208 c0 -2 -1 -27 -2 -56 -2 -50 -1 -52 23 -51 14 0 19 3 13 6
-8 3 -13 24 -13 54 0 27 -4 49 -10 49 -5 0 -10 -1 -11 -2z"/>
<path d="M8098 2203 c7 -3 12 -23 12 -48 0 -25 -5 -45 -12 -48 -7 -3 3 -5 22
-5 19 0 29 2 23 5 -7 2 -13 14 -13 26 1 21 2 21 25 -5 13 -16 32 -28 41 -28
13 0 11 4 -7 19 -21 17 -22 22 -11 41 19 31 -1 50 -52 49 -22 0 -35 -3 -28 -6z
m60 -20 c-5 -25 -28 -28 -28 -4 0 12 6 21 16 21 9 0 14 -7 12 -17z"/>
<path d="M8227 2203 c-15 -15 -5 -40 23 -57 17 -9 28 -22 25 -27 -10 -15 -33
-10 -44 9 -10 16 -10 15 -11 -3 0 -16 7 -21 29 -23 36 -3 59 21 41 43 -6 8
-20 17 -31 20 -22 7 -26 35 -4 35 7 0 19 -8 24 -17 10 -17 10 -16 11 2 0 16
-7 21 -28 23 -16 1 -32 -1 -35 -5z"/>
<path d="M8311 2193 c0 -10 3 -13 6 -5 2 6 11 12 19 12 18 0 19 -71 2 -88 -9
-9 -7 -12 13 -12 23 0 24 3 21 50 -4 51 3 60 27 38 11 -11 13 -10 9 2 -3 10
-20 16 -51 18 -40 3 -47 0 -46 -15z"/>
<path d="M8479 2155 c-23 -50 -24 -55 -7 -55 11 0 15 5 12 15 -5 11 1 15 21
15 20 0 26 -4 21 -15 -4 -12 7 -15 68 -15 61 0 75 3 81 18 5 14 4 15 -6 5 -22
-22 -59 -16 -59 8 0 18 4 20 25 15 18 -5 25 -2 25 7 0 10 -8 13 -25 9 -21 -3
-25 0 -25 18 0 19 4 22 30 18 17 -3 30 -1 30 4 0 4 -24 8 -52 7 -29 0 -47 -3
-40 -6 7 -3 12 -23 12 -50 0 -59 -26 -56 -50 7 -9 24 -21 45 -26 47 -5 1 -21
-22 -35 -52z m41 -1 c0 -8 -6 -14 -14 -14 -9 0 -12 7 -9 20 6 22 23 18 23 -6z"/>
<path d="M8697 2203 c-15 -15 -5 -44 18 -55 27 -12 34 -38 10 -38 -7 0 -19 8
-24 18 -10 16 -10 16 -11 0 0 -19 41 -35 59 -23 21 13 11 45 -19 60 -17 9 -28
20 -25 25 10 16 33 12 44 -7 10 -17 10 -16 11 2 0 16 -7 21 -28 23 -16 1 -32
-1 -35 -5z"/>
<path d="M10248 2203 c7 -3 12 -23 12 -48 0 -25 -5 -45 -12 -48 -7 -3 3 -5 22
-5 19 0 29 2 23 5 -7 2 -13 14 -13 26 1 21 2 21 25 -6 23 -26 30 -28 87 -25
44 2 63 7 66 18 4 12 2 13 -9 3 -22 -22 -59 -16 -59 8 0 17 5 20 25 17 16 -3
25 -1 25 7 0 8 -9 10 -25 7 -21 -3 -25 0 -25 18 0 19 4 22 30 18 17 -3 30 -1
30 4 0 4 -19 8 -42 8 l-43 0 3 -50 c4 -53 -11 -67 -39 -34 -10 13 -10 20 0 36
18 29 -2 48 -53 47 -22 0 -35 -3 -28 -6z m60 -20 c-5 -25 -28 -28 -28 -4 0 12
6 21 16 21 9 0 14 -7 12 -17z"/>
<path d="M10480 2190 c-25 -25 -25 -45 1 -71 30 -30 80 -23 90 14 7 25 5 27
-19 26 -15 0 -21 -3 -14 -6 20 -8 15 -43 -7 -43 -41 0 -55 61 -19 84 13 8 22
6 37 -8 21 -19 21 -19 21 0 0 29 -62 32 -90 4z"/>
<path d="M10588 2203 c7 -3 12 -23 12 -48 0 -25 -5 -45 -12 -48 -7 -3 10 -6
38 -6 41 -1 53 3 59 17 5 14 4 15 -6 5 -22 -22 -59 -16 -59 8 0 18 4 20 25 15
18 -5 25 -2 25 7 0 10 -8 13 -25 9 -21 -3 -25 0 -25 18 0 19 4 22 30 18 17 -3
30 -1 30 4 0 4 -24 8 -52 7 -29 0 -47 -3 -40 -6z"/>
<path d="M10698 2203 c7 -3 12 -23 12 -48 0 -25 -5 -45 -12 -48 -7 -3 1 -6 17
-6 20 0 26 2 17 8 -8 5 -12 21 -10 40 l3 33 30 -41 c17 -22 33 -41 37 -41 3 0
8 25 10 55 2 45 0 55 -13 55 -12 0 -15 -8 -12 -32 l4 -33 -29 33 c-16 17 -37
32 -48 31 -10 0 -13 -3 -6 -6z"/>
<path d="M10867 2203 c-14 -13 -7 -25 8 -13 15 13 35 6 35 -12 0 -6 -11 -26
-26 -45 l-25 -33 35 0 c20 0 36 4 36 9 0 4 -12 6 -27 3 l-27 -5 27 32 c15 18
27 36 27 40 0 22 -47 41 -63 24z"/>
<path d="M12225 2230 c0 -39 3 -50 16 -50 12 0 15 7 12 28 l-4 27 18 -28 c17
-26 22 -28 77 -25 42 2 61 7 64 18 4 12 2 13 -9 3 -20 -20 -49 -16 -49 6 0 12
8 21 23 24 l22 4 -22 2 c-14 0 -23 7 -23 17 0 12 7 15 25 12 14 -3 25 -1 25 3
0 5 -19 9 -42 8 -24 0 -37 -3 -30 -6 7 -2 12 -22 12 -44 0 -32 -3 -39 -20 -39
-25 0 -48 39 -30 50 23 14 2 40 -32 40 -33 0 -33 0 -33 -50z m47 25 c0 -5 -5
-11 -11 -13 -6 -2 -11 4 -11 13 0 9 5 15 11 13 6 -2 11 -8 11 -13z"/>
<path d="M12424 2255 c-15 -23 -15 -27 0 -51 22 -33 74 -31 87 4 7 19 5 22
-19 21 -15 0 -21 -3 -14 -6 14 -5 17 -33 3 -33 -27 0 -41 15 -41 41 0 34 23
48 51 30 11 -6 19 -7 19 -2 0 5 -7 12 -16 15 -31 12 -54 6 -70 -19z"/>
<path d="M12528 2273 c6 -2 12 -22 12 -43 0 -21 -6 -41 -12 -43 -7 -3 16 -5
52 -5 l66 0 -4 37 -4 36 35 -40 36 -40 1 48 c0 35 4 47 15 47 19 0 21 -76 3
-83 -7 -3 8 -6 35 -6 26 -1 47 3 47 8 0 4 -11 6 -25 3 -21 -3 -25 0 -25 18 0
17 4 21 20 17 12 -3 20 0 20 8 0 8 -8 11 -20 8 -14 -4 -20 0 -20 12 0 13 6 16
25 13 14 -3 25 -1 25 3 0 5 -30 9 -67 8 -38 0 -62 -3 -55 -6 6 -2 12 -17 12
-31 l-1 -27 -28 33 c-15 17 -36 32 -47 31 -10 0 -13 -3 -6 -6 14 -6 17 -83 2
-83 -5 0 -10 5 -10 12 0 9 -3 9 -12 0 -19 -19 -48 -15 -48 7 0 12 8 21 23 24
l22 4 -22 2 c-14 0 -23 7 -23 17 0 12 7 15 25 12 14 -3 25 -1 25 3 0 5 -19 9
-42 8 -24 0 -37 -3 -30 -6z"/>
<path d="M12825 2230 c0 -39 3 -50 16 -50 12 0 15 7 12 28 l-4 27 18 -27 c13
-21 26 -28 50 -28 21 0 32 5 31 12 -2 7 8 14 21 16 18 3 22 0 18 -12 -5 -12 0
-16 21 -16 15 0 22 3 15 8 -6 4 -19 26 -28 50 -10 23 -21 42 -25 42 -4 0 -15
-20 -24 -45 -19 -49 -39 -57 -57 -24 -8 17 -8 23 1 29 23 14 2 40 -32 40 -33
0 -33 0 -33 -50z m47 25 c0 -5 -5 -11 -11 -13 -6 -2 -11 4 -11 13 0 9 5 15 11
13 6 -2 11 -8 11 -13z m108 -26 c0 -5 -7 -9 -15 -9 -9 0 -12 6 -9 15 6 15 24
11 24 -6z"/>
<path d="M13030 2270 c0 -5 7 -7 16 -3 14 5 16 -1 13 -40 -4 -45 -3 -47 21
-46 14 0 19 3 13 6 -7 2 -13 22 -13 43 0 36 2 39 30 38 28 -1 30 -4 30 -39 0
-20 -6 -40 -12 -43 -7 -3 7 -4 31 -3 30 1 46 7 49 17 4 12 2 13 -9 3 -20 -20
-49 -16 -49 6 0 12 8 21 23 24 l22 4 -22 2 c-14 0 -23 7 -23 17 0 12 7 15 25
12 14 -3 25 -1 25 3 0 5 -38 9 -85 9 -48 0 -85 -4 -85 -10z"/>
<path d="M12558 2073 c6 -2 12 -22 12 -43 0 -21 -6 -41 -12 -43 -7 -3 -1 -6
14 -6 22 -1 25 2 20 22 -5 19 -4 20 11 8 9 -7 14 -17 11 -22 -3 -5 27 -9 65
-9 39 0 71 4 71 9 0 4 -11 6 -25 3 -21 -3 -25 0 -25 18 0 17 4 21 20 17 12 -3
20 0 20 8 0 8 -8 11 -20 8 -14 -4 -20 0 -20 11 0 11 9 15 36 14 30 -1 38 -7
52 -35 14 -30 14 -35 2 -43 -12 -7 -9 -10 11 -10 23 0 26 3 21 26 -3 17 3 33
18 50 l23 24 -22 0 c-12 0 -20 -4 -17 -8 2 -4 0 -14 -5 -22 -8 -13 -10 -13
-18 0 -5 8 -7 18 -5 22 3 4 -28 8 -68 7 -40 0 -67 -3 -60 -6 15 -6 16 -83 1
-83 -6 0 -26 12 -45 27 -24 18 -34 32 -31 45 4 14 0 18 -21 17 -15 0 -21 -3
-14 -6z"/>
<path d="M12613 2073 c4 -3 1 -13 -6 -21 -10 -13 -9 -14 10 -4 32 17 37 32 12
32 -12 0 -19 -3 -16 -7z"/>
<path d="M4753 809 c14 -8 17 -25 17 -104 0 -79 -3 -96 -17 -104 -14 -8 -6
-10 32 -10 28 1 42 3 33 6 -14 3 -18 15 -18 54 l0 49 55 0 55 0 0 -45 c0 -38
-4 -47 -22 -55 -18 -7 -10 -9 32 -8 30 0 47 2 38 5 -16 4 -18 18 -18 108 0 90
2 104 18 108 9 3 -8 5 -38 5 -42 1 -50 -1 -32 -8 18 -8 22 -17 22 -55 l0 -45
-55 0 -55 0 0 49 c0 39 4 51 18 54 9 3 -5 5 -33 6 -38 0 -46 -2 -32 -10z"/>
<path d="M5433 802 c10 -10 17 -30 17 -44 0 -25 -2 -26 -39 -21 -33 5 -44 1
-65 -20 -32 -32 -33 -71 -2 -101 19 -20 33 -24 85 -23 33 0 61 4 61 9 0 4 -4
8 -10 8 -6 0 -10 42 -10 105 l0 105 -27 0 c-25 0 -25 -1 -10 -18z m1 -88 c34
-33 9 -114 -35 -114 -21 0 -49 36 -49 65 0 29 28 65 50 65 10 0 26 -7 34 -16z"/>
<path d="M6380 800 c-40 -40 -19 -84 50 -104 56 -17 76 -43 54 -74 -26 -38
-94 -19 -114 32 -7 17 -9 12 -9 -23 -1 -34 2 -41 12 -33 8 7 18 7 27 2 30 -19
78 -11 99 16 26 33 26 45 1 77 -13 16 -35 28 -60 32 -63 11 -79 67 -22 82 29
7 52 -5 68 -36 19 -37 24 -36 24 9 0 33 -3 40 -13 32 -8 -7 -18 -7 -27 -2 -25
16 -69 11 -90 -10z"/>
<path d="M7293 814 c15 -5 17 -19 17 -104 0 -84 -3 -101 -17 -109 -14 -8 -8
-10 27 -10 40 0 42 2 23 11 -21 10 -23 18 -23 101 0 50 2 88 5 86 2 -3 22 -47
44 -99 21 -52 42 -95 46 -95 4 0 24 41 44 92 20 50 40 95 44 99 4 4 7 -34 7
-85 0 -86 -1 -92 -22 -101 -18 -7 -11 -9 32 -9 43 0 50 2 33 9 -22 9 -23 15
-23 105 0 90 1 96 23 105 19 8 17 9 -15 9 l-36 1 -38 -95 c-20 -52 -40 -93
-43 -90 -2 3 -21 45 -40 93 -35 85 -37 87 -71 89 -19 1 -27 -1 -17 -3z"/>
<path d="M7930 810 c0 -5 5 -10 10 -10 15 0 13 -197 -2 -203 -7 -3 5 -5 27 -5
22 0 34 2 28 5 -17 6 -17 105 -1 121 17 17 45 15 52 -4 13 -34 6 -103 -11
-113 -14 -8 -8 -10 27 -10 35 0 41 2 28 10 -14 7 -18 23 -18 62 0 29 -5 58
-12 65 -15 15 -54 16 -63 2 -14 -23 -25 -7 -25 40 0 43 -3 50 -20 50 -11 0
-20 -4 -20 -10z"/>
<path d="M8140 806 c0 -8 4 -17 9 -20 11 -7 33 18 24 27 -12 12 -33 7 -33 -7z"/>
<path d="M8736 804 c-9 -8 -16 -26 -16 -39 0 -14 -7 -25 -17 -28 -17 -4 -17
-5 0 -6 14 -1 17 -11 17 -61 0 -46 -4 -61 -17 -69 -14 -8 -7 -10 32 -10 40 0
45 2 28 9 -20 8 -23 17 -23 65 0 48 3 57 23 65 l22 9 -22 0 c-27 1 -31 28 -7
57 11 13 17 15 20 7 3 -7 13 -13 21 -13 13 0 13 3 3 15 -16 19 -44 19 -64 -1z"/>
<path d="M9253 809 c14 -8 17 -25 17 -104 0 -79 -3 -96 -17 -104 -14 -8 -5
-10 37 -9 30 0 45 3 33 5 -20 4 -23 11 -23 54 0 45 2 49 24 49 14 0 32 -10 40
-22 15 -22 16 -21 15 27 0 43 -2 47 -11 28 -8 -16 -20 -23 -40 -23 -27 0 -28
2 -28 50 l0 50 41 0 c50 0 79 -15 79 -40 0 -11 4 -20 8 -20 4 0 6 16 4 35 l-4
35 -97 0 c-70 -1 -91 -3 -78 -11z"/>
<path d="M6592 788 c-1 -10 -11 -27 -22 -38 -15 -15 -16 -20 -5 -20 10 0 15
-16 17 -61 2 -46 8 -65 21 -73 23 -15 51 3 54 35 2 22 2 22 -8 -3 -12 -31 -33
-37 -43 -12 -3 9 -6 37 -6 64 0 45 2 49 28 53 l27 4 -27 2 c-22 1 -27 6 -31
34 -2 17 -5 24 -5 15z"/>
<path d="M6902 788 c-1 -10 -11 -27 -22 -38 -15 -15 -16 -20 -5 -20 10 0 15
-16 17 -61 2 -46 8 -65 21 -73 23 -15 51 3 54 35 2 22 2 22 -8 -3 -12 -31 -33
-37 -43 -12 -3 9 -6 37 -6 64 0 45 2 49 28 53 l27 4 -27 2 c-22 1 -27 6 -31
34 -2 17 -5 24 -5 15z"/>
<path d="M9792 788 c-1 -10 -11 -27 -22 -38 -15 -15 -16 -20 -5 -20 10 0 15
-16 17 -61 2 -46 8 -65 21 -73 23 -15 51 3 54 35 2 22 2 22 -8 -3 -12 -31 -33
-37 -43 -12 -3 9 -6 37 -6 64 0 45 2 49 28 53 l27 4 -27 2 c-22 1 -27 6 -31
34 -2 17 -5 24 -5 15z"/>
<path d="M5033 733 c-7 -2 -13 -14 -13 -25 0 -11 5 -18 13 -15 6 2 11 11 9 21
-5 27 47 21 57 -6 8 -20 4 -24 -28 -33 -20 -5 -42 -14 -49 -18 -17 -12 -15
-54 4 -61 24 -9 62 -7 69 4 4 6 13 5 25 -2 22 -14 50 4 50 31 -1 14 -2 14 -11
-1 -18 -31 -29 -19 -29 30 0 68 -40 99 -97 75z m77 -82 c0 -22 -25 -51 -44
-51 -8 0 -20 7 -27 16 -11 14 -10 19 10 35 31 25 61 25 61 0z"/>
<path d="M5193 726 c12 -10 17 -27 17 -64 0 -38 -4 -54 -17 -61 -14 -8 -8 -10
27 -10 35 0 41 2 28 10 -23 13 -24 76 -2 107 15 21 17 22 28 6 9 -12 15 -14
20 -6 17 28 -28 44 -52 20 -9 -9 -12 -9 -12 0 0 7 -12 12 -27 12 -25 -1 -26
-2 -10 -14z"/>
<path d="M5517 732 c6 -4 21 -34 33 -67 29 -77 37 -85 50 -49 26 73 26 73 49
22 11 -27 22 -48 25 -48 2 0 14 26 26 58 12 31 29 65 37 75 15 16 14 17 -16
17 -27 0 -30 -2 -20 -17 8 -14 6 -28 -7 -58 l-16 -40 -18 45 c-12 31 -15 49
-8 58 8 9 3 12 -22 12 -27 0 -30 -2 -21 -14 10 -11 9 -24 0 -56 -14 -45 -21
-43 -39 14 -10 32 -10 40 1 47 9 6 0 9 -26 9 -22 0 -35 -4 -28 -8z"/>
<path d="M5793 733 c-7 -2 -13 -14 -13 -25 0 -11 5 -18 13 -15 6 2 11 11 9 21
-5 27 47 21 57 -6 8 -20 4 -24 -28 -33 -20 -5 -42 -14 -49 -18 -17 -12 -15
-54 4 -61 24 -9 62 -7 69 4 4 6 13 5 25 -2 22 -14 50 4 50 31 -1 14 -2 14 -11
-1 -18 -31 -29 -19 -29 30 0 68 -40 99 -97 75z m77 -82 c0 -22 -25 -51 -44
-51 -8 0 -20 7 -27 16 -11 14 -10 19 10 35 31 25 61 25 61 0z"/>
<path d="M5953 726 c12 -10 17 -27 17 -64 0 -38 -4 -54 -17 -61 -14 -8 -8 -10
27 -10 35 0 41 2 28 10 -23 13 -24 76 -2 107 15 21 17 22 28 6 9 -12 15 -14
20 -6 17 28 -28 44 -52 20 -9 -9 -12 -9 -12 0 0 7 -12 12 -27 12 -25 -1 -26
-2 -10 -14z"/>
<path d="M6095 715 c-14 -13 -25 -36 -25 -50 0 -14 11 -37 25 -50 36 -36 85
-32 107 9 10 21 10 20 -14 -1 -31 -29 -53 -29 -72 -1 -28 39 -21 48 39 48 61
0 71 14 35 50 -27 27 -66 25 -95 -5z m73 3 c24 -24 13 -38 -28 -38 -43 0 -49
9 -24 34 19 19 36 20 52 4z"/>
<path d="M6713 733 c-7 -2 -13 -14 -13 -25 0 -11 5 -18 13 -15 6 2 11 11 9 21
-5 27 47 21 57 -6 8 -20 4 -24 -28 -33 -20 -5 -42 -14 -49 -18 -17 -12 -15
-54 4 -61 24 -9 62 -7 69 4 4 6 13 5 25 -2 22 -14 50 4 50 31 -1 14 -2 14 -11
-1 -18 -31 -29 -19 -29 30 0 68 -40 99 -97 75z m77 -82 c0 -22 -25 -51 -44
-51 -8 0 -20 7 -27 16 -11 14 -10 19 10 35 31 25 61 25 61 0z"/>
<path d="M7025 715 c-14 -13 -25 -36 -25 -50 0 -14 11 -37 25 -50 36 -36 85
-32 107 9 10 21 10 20 -14 -1 -31 -29 -53 -29 -72 -1 -28 39 -21 48 39 48 61
0 71 14 35 50 -27 27 -66 25 -95 -5z m73 3 c24 -24 13 -38 -28 -38 -43 0 -49
9 -24 34 19 19 36 20 52 4z"/>
<path d="M7633 733 c-7 -2 -13 -14 -13 -25 0 -11 5 -18 13 -15 6 2 11 11 9 21
-5 27 47 21 57 -6 8 -20 4 -24 -28 -33 -20 -5 -42 -14 -49 -18 -17 -12 -15
-54 4 -61 24 -9 62 -7 69 4 4 6 13 5 25 -2 22 -14 50 4 50 31 -1 14 -2 14 -11
-1 -18 -31 -29 -19 -29 30 0 68 -40 99 -97 75z m77 -82 c0 -22 -25 -51 -44
-51 -8 0 -20 7 -27 16 -11 14 -10 19 10 35 31 25 61 25 61 0z"/>
<path d="M7819 727 c-20 -15 -39 -51 -39 -72 0 -9 11 -27 25 -40 30 -31 75
-33 100 -5 21 23 11 27 -11 5 -53 -52 -111 44 -62 102 16 20 60 17 56 -3 -2
-10 3 -19 10 -21 18 -7 15 34 -4 41 -25 9 -58 6 -75 -7z"/>
<path d="M8130 730 c0 -5 5 -10 10 -10 6 0 10 -25 10 -55 0 -41 -4 -56 -17
-64 -14 -8 -8 -10 27 -10 35 0 41 2 28 10 -14 8 -18 24 -18 74 0 58 -2 65 -20
65 -11 0 -20 -4 -20 -10z"/>
<path d="M8230 730 c0 -5 5 -10 10 -10 15 0 13 -117 -2 -123 -7 -3 5 -5 27 -5
22 0 34 2 28 5 -17 6 -17 105 -1 121 17 17 45 15 52 -4 13 -34 6 -103 -11
-113 -14 -8 -8 -10 27 -10 35 0 41 2 28 10 -14 7 -18 23 -18 62 0 29 -5 58
-12 65 -16 16 -50 15 -67 0 -11 -10 -14 -10 -18 0 -6 14 -43 16 -43 2z"/>
<path d="M8445 715 c-14 -13 -25 -36 -25 -50 0 -14 11 -37 25 -50 36 -36 85
-32 107 9 10 21 10 20 -14 -1 -31 -29 -53 -29 -72 -1 -28 39 -21 48 39 48 61
0 71 14 35 50 -27 27 -66 25 -95 -5z m73 3 c24 -24 13 -38 -28 -38 -43 0 -49
9 -24 34 19 19 36 20 52 4z"/>
<path d="M8825 715 c-14 -13 -25 -36 -25 -50 0 -36 42 -75 80 -75 34 0 80 38
80 65 0 24 -27 72 -45 79 -33 12 -66 5 -90 -19z m89 -7 c9 -12 16 -32 16 -43
0 -11 -7 -31 -16 -43 -30 -44 -84 -17 -84 43 0 60 54 87 84 43z"/>
<path d="M8993 726 c12 -10 17 -27 17 -64 0 -38 -4 -54 -17 -61 -14 -8 -8 -10
27 -10 35 0 41 2 28 10 -23 13 -24 76 -2 107 15 21 17 22 28 6 9 -12 15 -14
20 -6 17 28 -28 44 -52 20 -9 -9 -12 -9 -12 0 0 7 -12 12 -27 12 -25 -1 -26
-2 -10 -14z"/>
<path d="M9465 715 c-14 -13 -25 -36 -25 -50 0 -36 42 -75 80 -75 34 0 80 38
80 65 0 24 -27 72 -45 79 -33 12 -66 5 -90 -19z m89 -7 c9 -12 16 -32 16 -43
0 -11 -7 -31 -16 -43 -30 -44 -84 -17 -84 43 0 60 54 87 84 43z"/>
<path d="M9623 726 c12 -10 17 -27 17 -64 0 -38 -4 -54 -17 -61 -14 -8 -8 -10
27 -10 35 0 41 2 28 10 -23 13 -24 76 -2 107 15 21 17 22 28 6 9 -12 15 -14
20 -6 17 28 -28 44 -52 20 -9 -9 -12 -9 -12 0 0 7 -12 12 -27 12 -25 -1 -26
-2 -10 -14z"/>
<path d="M9900 730 c0 -5 5 -10 10 -10 6 0 10 -24 10 -53 0 -29 5 -58 12 -65
14 -14 64 -16 73 -2 4 6 -6 7 -25 4 l-30 -6 0 71 c0 69 -1 71 -25 71 -14 0
-25 -4 -25 -10z"/>
<path d="M10003 725 c15 -10 18 -25 17 -62 -4 -70 -3 -73 28 -73 24 1 25 2 10
14 -14 10 -18 28 -18 75 0 60 0 61 -27 61 -26 -1 -27 -2 -10 -15z"/>
<path d="M10100 730 c0 -5 5 -10 10 -10 15 0 13 -117 -2 -123 -7 -3 5 -5 27
-5 22 0 34 2 28 5 -17 6 -17 105 -1 121 17 17 45 15 52 -4 13 -34 6 -103 -11
-113 -14 -8 -8 -10 27 -10 35 0 41 2 28 10 -14 7 -18 23 -18 62 0 29 -5 58
-12 65 -16 16 -50 15 -67 0 -11 -10 -14 -10 -18 0 -6 14 -43 16 -43 2z"/>
<path d="M10313 733 c-7 -2 -13 -14 -13 -25 0 -11 5 -18 13 -15 6 2 11 11 9
21 -5 27 47 21 57 -6 8 -20 4 -24 -28 -33 -20 -5 -42 -14 -49 -18 -17 -12 -15
-54 4 -61 24 -9 62 -7 69 4 4 6 13 5 25 -2 22 -14 50 4 50 31 -1 14 -2 14 -11
-1 -18 -31 -29 -19 -29 30 0 68 -40 99 -97 75z m77 -82 c0 -22 -25 -51 -44
-51 -8 0 -20 7 -27 16 -11 14 -10 19 10 35 31 25 61 25 61 0z"/>
</g>
</svg>
